<svg width="1110" height="92" viewBox="0 0 1110 92" fill="none" xmlns="http://www.w3.org/2000/svg">
<path d="M46.68 44.24L10.42 59.08L46.68 75.04V83.16L0.2 62.16V55.72L46.68 36.26V44.24ZM71.9336 10.5H89.5736V42.84H97.4136V58.8H89.5736V91H71.9336V10.5ZM116.734 50.82L168.394 18.48L151.874 10.5L102.594 42.84V58.8L151.874 91L168.394 83.02L116.734 50.82ZM180.97 63.7L196.93 54.04H219.89V64.82H198.75V76.3H219.89V91.14H196.93L180.97 81.48V63.7ZM180.97 48.86V39.2L196.93 29.4H219.89V42.56H198.75V48.86H180.97ZM264.97 39.2L249.01 29.4H226.05V42.56H247.19V54.04H226.05V64.82H247.19V76.3H226.61V91.14H264.97V39.2ZM291.504 10.5H309.424V91.14H291.504V10.5ZM419.481 91H401.981V84.7L380.981 91V76.3H401.981V29.82H419.481V91ZM336.041 81.34L351.861 91H374.541V76.3H353.681V29.82H336.041V81.34ZM521.84 29.26L482.92 66.5V45.36L486.42 42.14H482.92V29.26H521.84ZM476.76 91H437.7L476.76 52.08V73.22L473.12 76.72H476.76V91ZM476.76 29.26V42.14H437.7V29.26H476.76ZM521.84 76.16V91H482.92V76.16H521.84ZM537.259 63.7L553.219 54.04H576.179V64.82H555.039V76.3H576.179V91.14H553.219L537.259 81.48V63.7ZM537.259 48.86V39.2L553.219 29.4H576.179V42.56H555.039V48.86H537.259ZM621.259 39.2L605.299 29.4H582.339V42.56H603.479V54.04H582.339V64.82H603.479V76.3H582.899V91.14H621.259V39.2ZM644.993 71.68H664.313V91H644.993V71.68Z" fill="white"/>
<path d="M689.492 10.5H734.292V26.32H707.132V74.62H734.292V91H689.492V10.5ZM785.952 20.16L770.132 10.5H741.152V26.32H768.312V74.62H741.152V91H770.132L785.952 81.48V20.16ZM811.172 10.5H855.972V27.02H828.812V42.84H855.972V58.8H828.812V75.18H855.412V91H811.172V10.5ZM862.832 75.18V91H907.632V75.18H862.832ZM907.632 27.02V10.5H862.272V27.02H907.632ZM884.952 58.8V42.84H862.272V58.8H884.952ZM929.239 10.5L958.079 58.8V91L913.279 15.68L929.239 10.5ZM993.919 10.5L964.939 58.8V91L1009.74 15.68L993.919 10.5ZM1051.74 0.28L1001.2 90.86H993.5L1043.2 0.419998L1051.74 0.28ZM1109.42 62.16L1062.94 83.16V75.04L1099.2 59.08L1062.94 44.24V36.26L1109.42 55.72V62.16Z" fill="#CC0000"/>
</svg>
